<svg xmlns="http://www.w3.org/2000/svg" xmlns:xlink="http://www.w3.org/1999/xlink" width="500" zoomAndPan="magnify" viewBox="0 0 375 374.999991" height="500" preserveAspectRatio="xMidYMid meet" version="1.0"><defs><g/><clipPath id="02bbd89897"><path d="M 166.433594 135.558594 L 219.683594 135.558594 L 219.683594 190 L 166.433594 190 Z M 166.433594 135.558594 " clip-rule="nonzero"/></clipPath></defs><rect x="-37.5" width="450" fill="#ffffff" y="-37.499999" height="449.999989" fill-opacity="1"/><rect x="-37.5" width="450" fill="#e4e0d7" y="-37.499999" height="449.999989" fill-opacity="1"/><g fill="#000000" fill-opacity="1"><g transform="translate(159.666615, 212.473712)"><g><path d="M 30.140625 -69.5625 C 33.835938 -69.5625 37.453125 -69.019531 40.984375 -67.9375 C 44.523438 -66.863281 47.148438 -65.804688 48.859375 -64.765625 L 51.34375 -63.109375 L 45.046875 -50.6875 C 44.554688 -51.007812 43.867188 -51.429688 42.984375 -51.953125 C 42.097656 -52.484375 40.441406 -53.191406 38.015625 -54.078125 C 35.585938 -54.960938 33.320312 -55.40625 31.21875 -55.40625 C 28.625 -55.40625 26.625 -54.851562 25.21875 -53.75 C 23.8125 -52.644531 23.109375 -51.15625 23.109375 -49.28125 C 23.109375 -48.332031 23.4375 -47.457031 24.09375 -46.65625 C 24.757812 -45.863281 25.890625 -45.007812 27.484375 -44.09375 C 29.085938 -43.1875 30.5 -42.457031 31.71875 -41.90625 C 32.9375 -41.351562 34.8125 -40.523438 37.34375 -39.421875 C 41.757812 -37.546875 45.523438 -34.992188 48.640625 -31.765625 C 51.765625 -28.535156 53.328125 -24.875 53.328125 -20.78125 C 53.328125 -16.863281 52.625 -13.441406 51.21875 -10.515625 C 49.8125 -7.585938 47.878906 -5.296875 45.421875 -3.640625 C 42.960938 -1.984375 40.242188 -0.753906 37.265625 0.046875 C 34.285156 0.847656 31.054688 1.25 27.578125 1.25 C 24.597656 1.25 21.671875 0.941406 18.796875 0.328125 C 15.929688 -0.273438 13.53125 -1.03125 11.59375 -1.9375 C 9.664062 -2.851562 7.925781 -3.753906 6.375 -4.640625 C 4.832031 -5.523438 3.703125 -6.269531 2.984375 -6.875 L 1.90625 -7.78125 L 9.6875 -20.875 C 10.351562 -20.320312 11.265625 -19.613281 12.421875 -18.75 C 13.578125 -17.894531 15.628906 -16.75 18.578125 -15.3125 C 21.535156 -13.882812 24.148438 -13.171875 26.421875 -13.171875 C 32.984375 -13.171875 36.265625 -15.40625 36.265625 -19.875 C 36.265625 -20.8125 36.03125 -21.679688 35.5625 -22.484375 C 35.09375 -23.285156 34.265625 -24.085938 33.078125 -24.890625 C 31.890625 -25.691406 30.84375 -26.328125 29.9375 -26.796875 C 29.03125 -27.265625 27.539062 -27.976562 25.46875 -28.9375 C 23.394531 -29.90625 21.863281 -30.640625 20.875 -31.140625 C 16.726562 -33.179688 13.523438 -35.734375 11.265625 -38.796875 C 9.003906 -41.859375 7.875 -45.15625 7.875 -48.6875 C 7.875 -54.820312 10.132812 -59.832031 14.65625 -63.71875 C 19.1875 -67.613281 24.347656 -69.5625 30.140625 -69.5625 Z M 30.140625 -69.5625 "/></g></g></g><g clip-path="url(#02bbd89897)"><path fill="#e4e1da" d="M 219.40625 162.339844 L 211.59375 162.339844 C 198.222656 159.445312 195.246094 156.460938 192.351562 143.066406 L 192.351562 135.558594 L 191.363281 135.558594 L 191.363281 143.144531 C 188.476562 156.472656 185.488281 159.449219 172.140625 162.339844 L 166.441406 162.339844 L 166.441406 163.328125 L 172.140625 163.328125 C 185.488281 166.214844 188.476562 169.191406 191.363281 182.519531 L 191.363281 189.96875 L 192.351562 189.96875 L 192.351562 182.597656 C 195.246094 169.207031 198.222656 166.222656 211.59375 163.328125 L 219.40625 163.328125 Z M 219.40625 162.339844 " fill-opacity="1" fill-rule="nonzero"/></g><g fill="#000000" fill-opacity="1"><g transform="translate(161.465559, 235.392318)"><g><path d="M 3.421875 -8.28125 L 3.65625 -8.28125 L 6.71875 0 L 5.796875 0 L 5.046875 -2.109375 L 1.984375 -2.109375 L 1.234375 0 L 0.359375 0 Z M 4.765625 -2.890625 L 3.515625 -6.375 L 2.265625 -2.890625 Z M 4.765625 -2.890625 "/></g></g></g><g fill="#000000" fill-opacity="1"><g transform="translate(172.145707, 235.392318)"><g><path d="M 4.578125 0.125 C 4.023438 0.125 3.503906 0.0195312 3.015625 -0.1875 C 2.535156 -0.40625 2.113281 -0.695312 1.75 -1.0625 C 1.394531 -1.4375 1.113281 -1.875 0.90625 -2.375 C 0.695312 -2.875 0.59375 -3.410156 0.59375 -3.984375 C 0.59375 -4.554688 0.695312 -5.097656 0.90625 -5.609375 C 1.125 -6.117188 1.414062 -6.5625 1.78125 -6.9375 C 2.144531 -7.320312 2.570312 -7.617188 3.0625 -7.828125 C 3.550781 -8.046875 4.070312 -8.15625 4.625 -8.15625 C 5.21875 -8.15625 5.773438 -8.03125 6.296875 -7.78125 C 6.816406 -7.53125 7.265625 -7.1875 7.640625 -6.75 L 7.015625 -6.21875 C 6.703125 -6.570312 6.335938 -6.84375 5.921875 -7.03125 C 5.503906 -7.226562 5.066406 -7.328125 4.609375 -7.328125 C 4.160156 -7.328125 3.75 -7.242188 3.375 -7.078125 C 3 -6.910156 2.671875 -6.675781 2.390625 -6.375 C 2.109375 -6.082031 1.890625 -5.734375 1.734375 -5.328125 C 1.578125 -4.929688 1.5 -4.492188 1.5 -4.015625 C 1.5 -3.546875 1.578125 -3.109375 1.734375 -2.703125 C 1.890625 -2.296875 2.109375 -1.945312 2.390625 -1.65625 C 2.671875 -1.363281 3 -1.128906 3.375 -0.953125 C 3.757812 -0.785156 4.175781 -0.703125 4.625 -0.703125 C 5.132812 -0.703125 5.59375 -0.800781 6 -1 C 6.414062 -1.207031 6.765625 -1.476562 7.046875 -1.8125 L 7.046875 -3.546875 L 4.625 -3.546875 L 4.625 -4.3125 L 7.890625 -4.3125 L 7.890625 -1.65625 C 7.492188 -1.082031 7.007812 -0.640625 6.4375 -0.328125 C 5.863281 -0.0234375 5.242188 0.125 4.578125 0.125 Z M 4.578125 0.125 "/></g></g></g><g fill="#000000" fill-opacity="1"><g transform="translate(184.409855, 235.392318)"><g><path d="M 1.078125 -8.046875 L 5.21875 -8.046875 L 5.21875 -7.265625 L 1.921875 -7.265625 L 1.921875 -4.5625 L 4.4375 -4.5625 L 4.4375 -3.78125 L 1.921875 -3.78125 L 1.921875 -0.78125 L 5.28125 -0.78125 L 5.28125 0 L 1.078125 0 Z M 1.078125 -8.046875 "/></g></g></g><g fill="#000000" fill-opacity="1"><g transform="translate(194.010002, 235.392318)"><g><path d="M 1.890625 -6.25 L 1.890625 0 L 1.078125 0 L 1.078125 -8.28125 L 1.3125 -8.28125 L 6.75 -1.78125 L 6.75 -8.046875 L 7.5625 -8.046875 L 7.5625 0.234375 L 7.3125 0.234375 Z M 1.890625 -6.25 "/></g></g></g><g fill="#000000" fill-opacity="1"><g transform="translate(206.25015, 235.392318)"><g><path d="M 4.578125 0.125 C 4.015625 0.125 3.488281 0.0195312 3 -0.1875 C 2.519531 -0.40625 2.101562 -0.695312 1.75 -1.0625 C 1.394531 -1.425781 1.113281 -1.859375 0.90625 -2.359375 C 0.695312 -2.859375 0.59375 -3.394531 0.59375 -3.96875 C 0.59375 -4.5625 0.695312 -5.113281 0.90625 -5.625 C 1.125 -6.132812 1.414062 -6.578125 1.78125 -6.953125 C 2.144531 -7.328125 2.570312 -7.617188 3.0625 -7.828125 C 3.550781 -8.046875 4.070312 -8.15625 4.625 -8.15625 C 5.21875 -8.15625 5.773438 -8.03125 6.296875 -7.78125 C 6.816406 -7.53125 7.265625 -7.1875 7.640625 -6.75 L 7.015625 -6.21875 C 6.703125 -6.570312 6.335938 -6.84375 5.921875 -7.03125 C 5.515625 -7.226562 5.070312 -7.328125 4.59375 -7.328125 C 4.144531 -7.328125 3.734375 -7.242188 3.359375 -7.078125 C 2.984375 -6.921875 2.65625 -6.691406 2.375 -6.390625 C 2.101562 -6.097656 1.890625 -5.75 1.734375 -5.34375 C 1.578125 -4.945312 1.5 -4.507812 1.5 -4.03125 C 1.5 -3.550781 1.578125 -3.109375 1.734375 -2.703125 C 1.890625 -2.296875 2.109375 -1.945312 2.390625 -1.65625 C 2.671875 -1.363281 3 -1.128906 3.375 -0.953125 C 3.757812 -0.785156 4.179688 -0.703125 4.640625 -0.703125 C 5.148438 -0.703125 5.609375 -0.800781 6.015625 -1 C 6.421875 -1.207031 6.765625 -1.476562 7.046875 -1.8125 L 7.640625 -1.296875 C 7.265625 -0.859375 6.816406 -0.507812 6.296875 -0.25 C 5.773438 0 5.203125 0.125 4.578125 0.125 Z M 4.578125 0.125 "/></g></g></g><g fill="#000000" fill-opacity="1"><g transform="translate(218.034297, 235.392318)"><g><path d="M 2.703125 -3.125 L 0.234375 -8.046875 L 1.1875 -8.046875 L 3.1875 -4.0625 L 5.203125 -8.046875 L 6.078125 -8.046875 L 3.546875 -3.125 L 3.546875 0 L 2.703125 0 Z M 2.703125 -3.125 "/></g></g></g></svg>